<?xml version="1.0" standalone="no"?>
<!DOCTYPE svg PUBLIC "-//W3C//DTD SVG 20010904//EN"
 "http://www.w3.org/TR/2001/REC-SVG-20010904/DTD/svg10.dtd">
<svg version="1.0" xmlns="http://www.w3.org/2000/svg"
 width="400.000000pt" height="400.000000pt" viewBox="0 0 400.000000 400.000000"
 preserveAspectRatio="xMidYMid meet">
<metadata>
Created by potrace 1.11, written by Peter Selinger 2001-2013
</metadata>
<g transform="translate(0.000000,400.000000) scale(0.100000,-0.100000)"
fill="#000000" stroke="none">
<path d="M0 2000 l0 -2000 2000 0 2000 0 0 2000 0 2000 -2000 0 -2000 0 0
-2000z m3940 0 l0 -1940 -1940 0 -1940 0 0 1940 0 1940 1940 0 1940 0 0 -1940z"/>
<path d="M110 2000 l0 -1890 1890 0 1890 0 0 1890 0 1890 -1890 0 -1890 0 0
-1890z m322 910 c26 -118 52 -239 59 -268 6 -30 13 -52 15 -49 4 4 144 521
144 532 0 3 46 4 102 3 l103 -3 52 -205 c70 -275 85 -331 88 -328 2 2 32 123
66 271 l63 267 104 0 c95 0 104 -2 97 -17 -3 -10 -52 -188 -108 -395 l-101
-378 -113 0 c-62 0 -113 2 -113 5 0 7 -129 476 -137 495 -6 16 -8 7 -94 -307
l-52 -193 -111 0 -111 0 -78 288 c-42 158 -90 336 -106 395 l-30 108 107 -3
106 -3 48 -215z m1439 15 c57 -20 104 -67 118 -120 6 -23 11 -131 11 -252 l0
-213 -95 0 -95 0 0 31 0 31 -32 -22 c-114 -75 -227 -77 -307 -4 -47 41 -67
102 -56 170 14 94 107 155 260 168 119 11 135 15 135 35 0 64 -139 92 -268 52
-39 -11 -73 -21 -76 -21 -3 0 -6 31 -6 70 0 79 -7 72 105 90 82 12 250 4 306
-15z m1774 1 c28 -9 63 -28 77 -43 53 -55 58 -83 58 -323 l0 -220 -95 0 -95 0
0 31 c0 31 0 31 -22 15 -71 -52 -179 -77 -242 -56 -76 25 -136 104 -136 180 0
43 29 107 62 138 32 29 117 59 193 66 138 15 145 17 145 35 0 64 -139 92 -268
52 -39 -11 -73 -21 -76 -21 -3 0 -6 31 -6 69 l0 70 53 10 c120 24 268 23 352
-3z m-1300 -188 c26 -106 51 -196 54 -200 4 -4 35 82 71 192 l63 200 83 0 83
0 55 -172 c30 -95 58 -186 62 -201 3 -16 10 -25 14 -20 4 4 29 95 55 201 l48
192 93 0 93 0 -9 -27 c-26 -81 -135 -428 -154 -490 l-21 -73 -97 0 -97 0 -63
195 c-35 107 -65 195 -68 195 -3 0 -18 -42 -33 -92 -15 -51 -42 -139 -59 -195
l-31 -103 -102 0 -103 0 -9 38 c-6 20 -41 134 -78 252 -37 118 -73 234 -80
258 l-13 42 98 0 98 0 47 -192z m-720 -1107 c107 -38 179 -116 217 -236 19
-58 22 -92 22 -200 -2 -308 -112 -477 -359 -551 -63 -19 -280 -26 -337 -11
l-28 7 0 95 c0 52 3 95 6 95 3 0 31 -7 62 -16 75 -22 202 -15 258 14 58 30
110 92 128 153 9 29 14 54 12 56 -2 2 -19 -5 -37 -16 -127 -74 -320 -61 -412
27 -125 119 -126 353 -2 491 43 47 140 98 211 111 71 13 194 4 259 -19z m996
-1 c125 -38 184 -109 184 -220 -1 -103 -51 -178 -145 -218 l-45 -19 58 -17
c115 -33 177 -127 163 -245 -12 -104 -66 -181 -164 -233 -129 -70 -353 -74
-569 -12 l-53 15 0 111 c0 101 2 110 18 104 9 -3 62 -21 117 -41 158 -55 294
-48 362 20 28 28 33 40 33 83 0 93 -50 122 -209 122 l-91 0 0 85 0 85 83 0
c142 0 197 31 197 110 0 113 -209 136 -409 45 -29 -14 -57 -25 -62 -25 -5 0
-9 49 -9 109 l0 109 79 21 c44 12 105 26 138 31 86 13 249 4 324 -20z m-1961
-405 l0 -415 105 0 105 0 0 -85 0 -85 -335 0 -335 0 0 85 0 85 105 0 105 0 0
265 0 265 -105 0 -105 0 0 80 0 80 41 0 c100 0 180 45 194 110 l7 30 109 0
109 0 0 -415z m3120 320 l0 -95 -225 0 -225 0 0 -80 0 -80 77 0 c226 0 361
-81 393 -237 29 -136 -26 -278 -134 -352 -126 -87 -357 -103 -561 -40 l-65 20
0 109 c0 70 4 110 10 110 6 0 28 -9 48 -19 81 -41 180 -64 260 -59 93 5 144
28 173 75 28 45 23 122 -11 159 -50 52 -193 68 -347 39 -43 -8 -81 -15 -85
-15 -5 0 -8 126 -8 280 l0 280 350 0 350 0 0 -95z"/>
<path d="M1706 2609 c-67 -11 -100 -37 -104 -82 -5 -55 27 -80 99 -75 31 2 68
12 83 21 24 16 26 23 26 82 0 74 3 72 -104 54z"/>
<path d="M3486 2609 c-68 -11 -100 -37 -104 -82 -5 -57 25 -80 98 -75 32 2 69
12 84 21 24 16 26 23 26 82 0 74 3 72 -104 54z"/>
<path d="M1405 1481 c-100 -42 -115 -247 -23 -315 34 -24 126 -33 187 -16 l43
11 -4 97 c-5 117 -29 181 -80 212 -34 20 -87 25 -123 11z"/>
</g>
</svg>
